<svg width="128" height="31" viewBox="0 0 128 31" fill="none" xmlns="http://www.w3.org/2000/svg">
<path d="M0.0096817 30V24.5862C0.0288097 25.2207 0.0858643 25.6335 0.256046 25.9759C0.481239 26.4291 0.84057 26.7975 1.28254 27.0283C1.78499 27.2908 2.44273 27.2908 3.75822 27.2908H10.4525C11.1102 27.2908 11.4391 27.2908 11.6903 27.4221C11.9113 27.5375 12.091 27.7217 12.2036 27.9483C12.3316 28.2058 12.3316 28.543 12.3316 29.2174V30H0.0096817Z" fill="#46A0DC"/>
<path d="M28.9108 24.5848V30H16.5889V29.2174C16.5889 28.543 16.5889 28.2058 16.7169 27.9483C16.8295 27.7217 17.0092 27.5375 17.2301 27.4221C17.4814 27.2908 17.8102 27.2908 18.468 27.2908H25.1622C26.4777 27.2908 27.1355 27.2908 27.6379 27.0283C28.0799 26.7975 28.4392 26.4291 28.6644 25.9759C28.8347 25.6332 28.8917 25.2201 28.9108 24.5848Z" fill="#46A0DC"/>
<path d="M4.11055 20.0662H24.8099V23.0765H18.145C16.8295 23.0765 16.1718 23.0765 15.6693 23.339C15.2274 23.5698 14.868 23.9382 14.6428 24.3914C14.5556 24.5668 14.4981 24.7608 14.4602 24.9935C14.4223 24.7608 14.3648 24.5668 14.2776 24.3914C14.0524 23.9382 13.6931 23.5698 13.2511 23.339C12.7487 23.0765 12.0909 23.0765 10.7755 23.0765H4.11055V20.0662Z" fill="#46A0DC"/>
<path d="M2.26894e-06 0.347534H4.11052H10.7754C12.0909 0.347534 12.7487 0.347534 13.2511 0.610012C13.6931 0.840894 14.0524 1.2093 14.2776 1.66243C14.3648 1.83789 14.4223 2.03182 14.4602 2.26457C14.4981 2.03182 14.5556 1.83789 14.6428 1.66243C14.868 1.2093 15.2273 0.840894 15.6693 0.610012C16.1718 0.347534 16.8295 0.347534 18.145 0.347534H24.8099H28.9204L28.9204 20.0794H24.8099L24.8099 4.56188H18.145C16.8295 4.56188 16.1718 4.56188 15.6693 4.82436C15.2273 5.05524 14.868 5.42365 14.6428 5.87678C14.5556 6.05224 14.4981 6.24617 14.4602 6.47892C14.4223 6.24617 14.3648 6.05224 14.2776 5.87678C14.0524 5.42365 13.6931 5.05524 13.2511 4.82436C12.7487 4.56188 12.0909 4.56188 10.7754 4.56188H4.11052L4.11051 20.0794H0L2.26894e-06 0.347534Z" fill="#46A0DC"/>
<path d="M40.0476 16.5446H43.6637V0.324404H40.0476V16.5446Z" fill="#31475D"/>
<path d="M62.1574 8.4345C62.1574 6.04782 61.3663 4.05505 59.7617 2.43303C58.157 0.811011 56.2134 0 53.9307 0C51.648 0 49.7043 0.811011 48.0997 2.43303C46.495 4.05505 45.704 6.04782 45.704 8.4345C45.704 10.8212 46.495 12.814 48.0997 14.436C49.7043 16.058 51.648 16.869 53.9307 16.869C55.2189 16.869 56.462 16.5678 57.6372 15.9885L59.3323 17.819L61.9314 15.4555L60.3493 13.7408C61.5471 12.2115 62.1574 10.4504 62.1574 8.4345ZM53.9307 13.2542C52.6198 13.2542 51.5124 12.814 50.631 11.9103C49.7495 11.0066 49.3201 9.84798 49.3201 8.4345C49.3201 7.02103 49.7495 5.86244 50.631 4.95875C51.5124 4.05505 52.6198 3.61479 53.9307 3.61479C55.2415 3.61479 56.3264 4.05505 57.2078 4.95875C58.0892 5.86244 58.5412 7.02103 58.5412 8.4345C58.5412 9.38454 58.3152 10.2419 57.8858 11.0529L55.9466 8.90254L53.3475 11.2661L55.0381 13.1384C54.6313 13.2079 54.2697 13.2542 53.9307 13.2542Z" fill="#31475D"/>
<path d="M62.2688 0.324404V3.89285H66.3369V16.5446H69.953V3.89285H74.0212V0.324404H62.2688Z" fill="#31475D"/>
<path d="M75.6041 16.5446H79.2203V0.324404H75.6041V16.5446Z" fill="#31475D"/>
<path d="M81.9385 0.324404V16.5446H88.2668C90.459 16.5446 92.2671 15.7799 93.7361 14.2274C95.2052 12.6749 95.951 10.7285 95.951 8.4345C95.951 6.1405 95.2052 4.21725 93.7361 2.66475C92.2671 1.11224 90.459 0.324404 88.2668 0.324404H81.9385ZM85.5547 12.9762V3.89285H88.2668C89.5098 3.89285 90.5268 4.30994 91.2953 5.14412C92.0863 5.95513 92.4705 7.06737 92.4705 8.4345C92.4705 9.80163 92.0863 10.9139 91.2953 11.7481C90.5268 12.5591 89.5098 12.9762 88.2668 12.9762H85.5547Z" fill="#31475D"/>
<path d="M111.364 14.436C112.969 12.814 113.76 10.8212 113.76 8.4345C113.76 6.04782 112.969 4.05505 111.364 2.43303C109.759 0.811011 107.816 0 105.533 0C103.25 0 101.307 0.811011 99.7019 2.43303C98.0972 4.05505 97.3062 6.04782 97.3062 8.4345C97.3062 10.8212 98.0972 12.814 99.7019 14.436C101.307 16.058 103.25 16.869 105.533 16.869C107.816 16.869 109.759 16.058 111.364 14.436ZM102.233 11.9103C101.352 11.0066 100.922 9.84798 100.922 8.4345C100.922 7.02103 101.352 5.86244 102.233 4.95875C103.115 4.05505 104.222 3.61479 105.533 3.61479C106.844 3.61479 107.929 4.05505 108.81 4.95875C109.691 5.86244 110.143 7.02103 110.143 8.4345C110.143 9.84798 109.691 11.0066 108.81 11.9103C107.929 12.814 106.844 13.2542 105.533 13.2542C104.222 13.2542 103.115 12.814 102.233 11.9103Z" fill="#31475D"/>
<path d="M128 16.5446L124.632 10.5895C126.373 9.6626 127.548 7.85521 127.548 5.88562C127.548 4.33311 127.028 3.0355 125.966 1.94642C124.904 0.857353 123.638 0.324404 122.124 0.324404H115.796V16.5446H119.412V11.2151H121.129L124.113 16.5446H128ZM122.124 3.80016C123.118 3.80016 123.932 4.70386 123.932 5.88562C123.932 7.06737 123.118 7.97107 122.124 7.97107H119.412V3.80016H122.124Z" fill="#31475D"/>
<path d="M40.9985 21.4055V28.7851H40V21.4055H40.9985Z" fill="#31475D"/>
<path d="M45.2732 21.4055V28.7851H44.2902V21.4055H45.2732ZM47.6945 21.4055V22.2063H41.8741V21.4055H47.6945Z" fill="#31475D"/>
<path d="M53.6829 22.0593L51.1892 28.7851H50.17L53.0414 21.4055H53.6984L53.6829 22.0593ZM55.7731 28.7851L53.2742 22.0593L53.2587 21.4055H53.9157L56.7975 28.7851H55.7731ZM55.6437 26.0532V26.854H51.4116V26.0532H55.6437Z" fill="#31475D"/>
<path d="M59.7322 28.1161C59.9598 28.1161 60.1702 28.0705 60.3634 27.9792C60.5565 27.888 60.7152 27.763 60.8394 27.6042C60.9635 27.442 61.0342 27.2578 61.0515 27.0517H61.9621C61.9448 27.3761 61.8327 27.6785 61.6258 27.9589C61.4223 28.236 61.155 28.4607 60.8238 28.633C60.4927 28.802 60.1288 28.8865 59.7322 28.8865C59.3114 28.8865 58.9441 28.8138 58.6302 28.6685C58.3198 28.5232 58.0611 28.3239 57.8541 28.0705C57.6506 27.817 57.4971 27.5264 57.3937 27.1987C57.2936 26.8675 57.2436 26.5178 57.2436 26.1495V25.9366C57.2436 25.5683 57.2936 25.2203 57.3937 24.8925C57.4971 24.5614 57.6506 24.2691 57.8541 24.0157C58.0611 23.7623 58.3198 23.5629 58.6302 23.4176C58.9441 23.2723 59.3114 23.1997 59.7322 23.1997C60.1702 23.1997 60.5531 23.2875 60.8807 23.4633C61.2084 23.6356 61.4654 23.8721 61.6516 24.1728C61.8413 24.4702 61.9448 24.8081 61.9621 25.1865H61.0515C61.0342 24.9601 60.9687 24.7557 60.8549 24.5732C60.7445 24.3908 60.5927 24.2455 60.3996 24.1374C60.2099 24.0258 59.9874 23.9701 59.7322 23.9701C59.439 23.9701 59.1924 24.0275 58.9923 24.1424C58.7957 24.2539 58.6388 24.406 58.5215 24.5986C58.4077 24.7878 58.3249 24.999 58.2732 25.2321C58.2249 25.4619 58.2008 25.6967 58.2008 25.9366V26.1495C58.2008 26.3894 58.2249 26.626 58.2732 26.8591C58.3215 27.0922 58.4025 27.3034 58.5164 27.4927C58.6336 27.6819 58.7906 27.8339 58.9872 27.9488C59.1872 28.0603 59.4356 28.1161 59.7322 28.1161Z" fill="#31475D"/>
<path d="M66.1695 27.8474V25.0243C66.1695 24.8081 66.1246 24.6205 66.035 24.4617C65.9487 24.2995 65.8177 24.1745 65.6418 24.0867C65.4659 23.9988 65.2486 23.9549 64.9899 23.9549C64.7484 23.9549 64.5363 23.9954 64.3535 24.0765C64.1742 24.1576 64.0327 24.2641 63.9293 24.3958C63.8292 24.5276 63.7792 24.6695 63.7792 24.8216H62.8221C62.8221 24.6256 62.8738 24.4313 62.9773 24.2387C63.0808 24.0461 63.2291 23.8721 63.4222 23.7167C63.6188 23.5579 63.8534 23.4328 64.1259 23.3416C64.4018 23.247 64.7088 23.1997 65.0468 23.1997C65.4538 23.1997 65.8125 23.2673 66.1229 23.4024C66.4368 23.5376 66.6817 23.742 66.8576 24.0157C67.0369 24.286 67.1266 24.6256 67.1266 25.0345V27.589C67.1266 27.7714 67.1421 27.9657 67.1732 28.1718C67.2077 28.3779 67.2577 28.5553 67.3232 28.704V28.7851H66.3247C66.2764 28.677 66.2385 28.5334 66.2109 28.3543C66.1833 28.1718 66.1695 28.0029 66.1695 27.8474ZM66.335 25.4602L66.3454 26.1191H65.3779C65.1054 26.1191 64.8623 26.1411 64.6484 26.185C64.4346 26.2255 64.2552 26.2881 64.1103 26.3725C63.9655 26.457 63.8551 26.5634 63.7792 26.6918C63.7033 26.8169 63.6654 26.9638 63.6654 27.1328C63.6654 27.3051 63.7051 27.4622 63.7844 27.6042C63.8637 27.7461 63.9827 27.8593 64.1414 27.9437C64.3035 28.0248 64.5018 28.0654 64.7364 28.0654C65.0295 28.0654 65.2882 28.0046 65.5124 27.8829C65.7366 27.7613 65.9142 27.6126 66.0453 27.4369C66.1798 27.2612 66.2523 27.0906 66.2626 26.925L66.6713 27.3761C66.6472 27.518 66.5817 27.6751 66.4747 27.8474C66.3678 28.0198 66.2247 28.1853 66.0453 28.3441C65.8694 28.4996 65.659 28.6297 65.4141 28.7344C65.1727 28.8358 64.9002 28.8865 64.5967 28.8865C64.2173 28.8865 63.8844 28.8138 63.5981 28.6685C63.3153 28.5232 63.0946 28.3289 62.9359 28.0857C62.7807 27.839 62.7031 27.5636 62.7031 27.2595C62.7031 26.9655 62.7617 26.707 62.879 26.484C62.9963 26.2576 63.1653 26.0701 63.386 25.9214C63.6068 25.7694 63.8724 25.6545 64.1828 25.5768C64.4932 25.4991 64.8398 25.4602 65.2227 25.4602H66.335Z" fill="#31475D"/>
<path d="M71.9911 27.7207V21H72.9534V28.7851H72.0739L71.9911 27.7207ZM68.2247 26.1039V25.9975C68.2247 25.5785 68.2764 25.1983 68.3799 24.8571C68.4868 24.5124 68.6368 24.2168 68.83 23.9701C69.0266 23.7234 69.2594 23.5342 69.5284 23.4024C69.8009 23.2673 70.1044 23.1997 70.439 23.1997C70.7908 23.1997 71.0978 23.2605 71.3599 23.3822C71.6255 23.5004 71.8497 23.6744 72.0325 23.9042C72.2188 24.1306 72.3653 24.4043 72.4723 24.7253C72.5792 25.0463 72.6534 25.4095 72.6947 25.815V26.2813C72.6568 26.6834 72.5826 27.0449 72.4723 27.3659C72.3653 27.6869 72.2188 27.9606 72.0325 28.187C71.8497 28.4134 71.6255 28.5874 71.3599 28.7091C71.0943 28.8273 70.7839 28.8865 70.4287 28.8865C70.101 28.8865 69.8009 28.8172 69.5284 28.6787C69.2594 28.5401 69.0266 28.3458 68.83 28.0958C68.6368 27.8458 68.4868 27.5518 68.3799 27.2139C68.2764 26.8726 68.2247 26.5026 68.2247 26.1039ZM69.187 25.9975V26.1039C69.187 26.3776 69.2146 26.6344 69.2697 26.8743C69.3284 27.1142 69.4181 27.3254 69.5388 27.5079C69.6595 27.6903 69.813 27.8339 69.9992 27.9387C70.1855 28.04 70.408 28.0907 70.6666 28.0907C70.984 28.0907 71.2444 28.0248 71.4479 27.8931C71.6548 27.7613 71.8204 27.5873 71.9446 27.371C72.0687 27.1548 72.1653 26.9199 72.2343 26.6665V25.445C72.1929 25.2592 72.1325 25.0801 72.0532 24.9078C71.9773 24.732 71.8773 24.5766 71.7531 24.4415C71.6324 24.3029 71.4824 24.1931 71.303 24.112C71.1271 24.0309 70.9184 23.9904 70.677 23.9904C70.4149 23.9904 70.1889 24.0444 69.9992 24.1526C69.813 24.2573 69.6595 24.4026 69.5388 24.5884C69.4181 24.7709 69.3284 24.9838 69.2697 25.2271C69.2146 25.467 69.187 25.7238 69.187 25.9975Z" fill="#31475D"/>
<path d="M76.5969 28.8865C76.2072 28.8865 75.8536 28.8223 75.5363 28.6939C75.2224 28.5621 74.9517 28.3779 74.724 28.1414C74.4998 27.9049 74.3274 27.6244 74.2067 27.3001C74.0859 26.9757 74.0256 26.6209 74.0256 26.2357V26.0228C74.0256 25.5768 74.0928 25.1798 74.2274 24.8317C74.3619 24.4803 74.5447 24.183 74.7758 23.9397C75.0069 23.6964 75.269 23.5122 75.5622 23.3872C75.8554 23.2622 76.1589 23.1997 76.4728 23.1997C76.8729 23.1997 77.2178 23.2673 77.5075 23.4024C77.8007 23.5376 78.0404 23.7268 78.2266 23.9701C78.4129 24.21 78.5509 24.4938 78.6405 24.8216C78.7302 25.146 78.7751 25.5008 78.7751 25.886V26.3066H74.5947V25.5413H77.8179V25.4703C77.8041 25.2271 77.7524 24.9905 77.6627 24.7608C77.5765 24.531 77.4385 24.3418 77.2488 24.1931C77.0591 24.0444 76.8004 23.9701 76.4728 23.9701C76.2555 23.9701 76.0554 24.0157 75.8726 24.1069C75.6898 24.1948 75.5329 24.3266 75.4018 24.5023C75.2707 24.678 75.169 24.8925 75.0965 25.146C75.0241 25.3994 74.9879 25.6917 74.9879 26.0228V26.2357C74.9879 26.4959 75.0241 26.7408 75.0965 26.9706C75.1724 27.197 75.2811 27.3964 75.4225 27.5687C75.5674 27.741 75.7415 27.8762 75.945 27.9742C76.152 28.0721 76.3865 28.1211 76.6487 28.1211C76.9867 28.1211 77.273 28.0536 77.5075 27.9184C77.742 27.7832 77.9473 27.6025 78.1232 27.3761L78.7026 27.8272C78.5819 28.0063 78.4284 28.1769 78.2422 28.3391C78.0559 28.5013 77.8265 28.633 77.5541 28.7344C77.285 28.8358 76.966 28.8865 76.5969 28.8865Z" fill="#31475D"/>
<path d="M80.675 24.3908V28.7851H79.7127V23.3011H80.6233L80.675 24.3908ZM80.4784 25.8353L80.0335 25.8201C80.0369 25.445 80.0869 25.0987 80.1835 24.781C80.2801 24.46 80.4232 24.1813 80.6129 23.9448C80.8026 23.7082 81.0389 23.5258 81.3217 23.3974C81.6046 23.2656 81.9322 23.1997 82.3047 23.1997C82.5669 23.1997 82.8083 23.2369 83.0291 23.3112C83.2498 23.3822 83.4412 23.4954 83.6033 23.6508C83.7654 23.8062 83.8913 24.0056 83.981 24.2489C84.0707 24.4921 84.1155 24.7861 84.1155 25.1308V28.7851H83.1584V25.1764C83.1584 24.8892 83.1084 24.6594 83.0084 24.4871C82.9118 24.3147 82.7738 24.1897 82.5945 24.112C82.4151 24.0309 82.2047 23.9904 81.9633 23.9904C81.6804 23.9904 81.4442 24.0394 81.2545 24.1374C81.0648 24.2353 80.913 24.3705 80.7992 24.5428C80.6854 24.7152 80.6026 24.9128 80.5508 25.1358C80.5026 25.3555 80.4784 25.5886 80.4784 25.8353ZM84.1052 25.3183L83.4636 25.5109C83.4671 25.2102 83.5171 24.9213 83.6137 24.6442C83.7137 24.3671 83.8568 24.1205 84.0431 23.9042C84.2328 23.688 84.4656 23.5173 84.7416 23.3923C85.0175 23.2639 85.3331 23.1997 85.6883 23.1997C85.9884 23.1997 86.254 23.2386 86.4851 23.3163C86.7196 23.394 86.9162 23.5139 87.0749 23.6761C87.237 23.8349 87.3595 24.0394 87.4422 24.2894C87.525 24.5394 87.5664 24.8368 87.5664 25.1814V28.7851H86.6041V25.1713C86.6041 24.8638 86.5541 24.6256 86.4541 24.4567C86.3575 24.2843 86.2195 24.1644 86.0402 24.0968C85.8643 24.0258 85.6539 23.9904 85.409 23.9904C85.1986 23.9904 85.0123 24.0258 84.8502 24.0968C84.6881 24.1678 84.5518 24.2658 84.4415 24.3908C84.3311 24.5124 84.2466 24.6526 84.188 24.8115C84.1328 24.9703 84.1052 25.1392 84.1052 25.3183Z" fill="#31475D"/>
<path d="M90.4183 28.2174L91.9756 23.3011H93L90.7546 29.6315C90.7029 29.7667 90.6339 29.912 90.5477 30.0674C90.4649 30.2262 90.358 30.3766 90.2269 30.5185C90.0958 30.6604 89.9372 30.7753 89.7509 30.8632C89.5681 30.9544 89.3491 31 89.0938 31C89.018 31 88.9214 30.9899 88.8041 30.9696C88.6868 30.9493 88.6041 30.9324 88.5558 30.9189L88.5506 30.1586C88.5782 30.162 88.6213 30.1654 88.6799 30.1688C88.742 30.1755 88.7851 30.1789 88.8093 30.1789C89.0266 30.1789 89.2111 30.1502 89.3629 30.0928C89.5146 30.0387 89.6423 29.9458 89.7457 29.814C89.8527 29.6856 89.9441 29.5082 90.0199 29.2818L90.4183 28.2174ZM89.2749 23.3011L90.7287 27.5585L90.9771 28.5469L90.289 28.8915L88.2298 23.3011H89.2749Z" fill="#31475D"/>
</svg>
